<?xml version="1.0" encoding="utf-8"?>
<!-- Generator: Adobe Illustrator 24.1.3, SVG Export Plug-In . SVG Version: 6.00 Build 0)  -->
<svg version="1.1" id="Layer_1" xmlns="http://www.w3.org/2000/svg" xmlns:xlink="http://www.w3.org/1999/xlink" x="0px" y="0px"
	 viewBox="0 0 765 198.1" style="enable-background:new 0 0 765 198.1;" xml:space="preserve">
<style type="text/css">
	.st0{display:none;}
	.st1{fill:#010101;}
	.st2{display:inline;}
	.st3{font-family:'OpenSans-Regular';}
	.st4{font-size:15px;}
	.st5{font-family:'OpenSans-SemiBold';}
	.st6{font-size:16px;}
</style>
<g class="st0">
	
		<image style="display:inline;overflow:visible;enable-background:new    ;" width="414" height="134" xlink:href="C1FC2E7E.png"  transform="matrix(1.4073 0 0 1.4007 75.9503 140.0342)">
	</image>
</g>
<g>
	<g>
		<g>
			<g>
				<g>
					<g>
						<path class="st1" d="M184.3,121.2h10.6c0,9.7-7.9,17.5-17.5,17.5c-3.4,0-3.5,3.7,5.9,3.7c11.7,0,21.2-9.5,21.2-21.2l0,0H215
							l-15.4-15.4L184.3,121.2z"/>
					</g>
				</g>
			</g>
		</g>
	</g>
	<g>
		<g>
			<g>
				<g>
					<g>
						<path class="st1" d="M172.1,84.9c-11.7,0-21.2,9.5-21.2,21.2l0,0h-10.6l15.4,15.4l15.4-15.4h-10.6c0-9.7,7.9-17.5,17.5-17.5
							C181.4,88.6,181.5,84.9,172.1,84.9z"/>
					</g>
				</g>
			</g>
		</g>
	</g>
	<g>
		<g>
			<g>
				<g>
					<g>
						<g>
							<path class="st1" d="M61.2,112c0-3.3,2.7-6,6-6h4.4c1.4,0,2.8,0.5,3.8,1.4c1.5-0.2,2.9-0.5,4.2-0.9c2.7-4.2,4.3-9.2,4.3-14.1
								c0-12.1-9.9-22-22-22s-22,9.9-22,22s9.9,25,22,25c0.8,0,1.6-0.1,2.4-0.2C62.4,116.2,61.2,114.2,61.2,112z"/>
						</g>
					</g>
				</g>
			</g>
		</g>
		<g>
			<g>
				<g>
					<g>
						<g>
							<path class="st1" d="M78.4,117.6c-4.3,3.3-9.6,5.2-15.4,5.2h-2.3c-5.8,0-11.1-1.9-15.3-5.2c-13.9,2.3-24.6,14.3-24.6,28.9
								c0,8,18.4,14.5,41.1,14.5s41.1-6.5,41.1-14.5C103,131.9,92.3,119.8,78.4,117.6z"/>
						</g>
					</g>
				</g>
			</g>
		</g>
		<g>
			<g>
				<g>
					<g>
						<g>
							<path class="st1" d="M31.1,109.3h0.3c3,0,5.5-2.5,5.5-5.5v-11c0-2.1-1.2-4-3-4.9C34.7,73.1,47,61.3,62,61.3
								s27.3,11.8,28.1,26.6c-1.8,0.9-3.1,2.8-3.1,4.9v11c0,0.7,0.1,1.4,0.4,2c-3.2,2.3-7.8,3.9-13.1,4.4c-0.6-0.9-1.6-1.5-2.8-1.5
								h-4.4c-1.8,0-3.3,1.5-3.3,3.3s1.5,3.3,3.3,3.3h4.4c1.3,0,2.3-0.7,2.9-1.8c6.1-0.5,11.4-2.3,15.1-5.1c0.8,0.5,1.9,0.9,2.9,0.9
								h0.3c3,0,5.5-2.5,5.5-5.5v-11c0-2.2-1.3-4.1-3.1-4.9c-0.8-17.6-15.4-31.7-33.2-31.7S29.5,70.3,28.7,87.9
								c-1.9,0.9-3.1,2.8-3.1,4.9v11C25.6,106.8,28.1,109.3,31.1,109.3z"/>
						</g>
					</g>
				</g>
			</g>
		</g>
	</g>
	<g>
		<g>
			<g>
				<g>
					<g>
						<path class="st1" d="M368.5,102.1c1,0,1.9-0.9,1.9-1.9v-4.4c0-0.7-0.5-1.6-1.1-2L322,64.7c-0.6-0.4-1.6-0.4-2.3,0l-47.3,29.1
							c-0.6,0.4-1.1,1.3-1.1,2v4.4c0,1,0.9,1.9,1.9,1.9h5.7V144h-5.7c-1,0-1.9,0.9-1.9,1.9v7.6c0,1,0.9,1.9,1.9,1.9h95.3
							c1,0,1.9-0.9,1.9-1.9V146c0-1-0.9-1.9-1.9-1.9h-5.7v-41.9h5.7V102.1z M301.7,140.2h-11.4v-28.6c0-3.2,2.6-5.7,5.7-5.7
							s5.7,2.6,5.7,5.7L301.7,140.2L301.7,140.2z M326.5,140.2h-11.4v-28.6c0-3.2,2.6-5.7,5.7-5.7s5.7,2.6,5.7,5.7L326.5,140.2
							L326.5,140.2z M351.3,140.2h-11.4v-28.6c0-3.2,2.6-5.7,5.7-5.7s5.7,2.6,5.7,5.7L351.3,140.2L351.3,140.2z"/>
					</g>
				</g>
			</g>
		</g>
	</g>
	<g>
		<g>
			<g>
				<g>
					<g>
						<g>
							<g>
								<g>
									<path d="M707.8,77.4h-32.1V56.3h32.1V77.4z M677.7,75.4h28.1V58.3h-28.1V75.4z"/>
								</g>
							</g>
						</g>
					</g>
				</g>
			</g>
			<g>
				<g>
					<g>
						<g>
							<g>
								<path d="M682,66.5c1.6-1.8,4.9-3.7,9.8-3.7c4.9,0,8.3,2,9.8,3.7h2.3c-1.4-3.8-7.1-5.8-12.2-5.8c-5.2,0-10.6,2-12,5.8H682z"
									/>
							</g>
						</g>
					</g>
				</g>
			</g>
			<g>
				<g>
					<g>
						<g>
							<g>
								<rect x="680.9" y="68" width="10.2" height="1.9"/>
							</g>
						</g>
					</g>
				</g>
			</g>
			<g>
				<g>
					<g>
						<g>
							<g>
								<rect x="680.9" y="71.4" width="10.2" height="1.9"/>
							</g>
						</g>
					</g>
				</g>
			</g>
			<g>
				<g>
					<g>
						<g>
							<g>
								<circle cx="699.8" cy="70.6" r="2.6"/>
							</g>
						</g>
					</g>
				</g>
			</g>
		</g>
		<g>
			<g>
				<g>
					<g>
						<g>
							<g>
								<g>
									<path d="M707.8,101h-32.1V79.9h32.1V101z M677.7,99h28.1V81.9h-28.1V99z"/>
								</g>
							</g>
						</g>
					</g>
				</g>
			</g>
			<g>
				<g>
					<g>
						<g>
							<g>
								<path d="M682,90c1.6-1.8,4.9-3.7,9.8-3.7c4.9,0,8.3,2,9.8,3.7h2.3c-1.4-3.8-7.1-5.8-12.2-5.8c-5.2,0-10.6,2-12,5.8H682z"/>
							</g>
						</g>
					</g>
				</g>
			</g>
			<g>
				<g>
					<g>
						<g>
							<g>
								<rect x="680.9" y="91.6" width="10.2" height="1.9"/>
							</g>
						</g>
					</g>
				</g>
			</g>
			<g>
				<g>
					<g>
						<g>
							<g>
								<rect x="680.9" y="95" width="10.2" height="1.9"/>
							</g>
						</g>
					</g>
				</g>
			</g>
			<g>
				<g>
					<g>
						<g>
							<g>
								<circle cx="699.8" cy="94.2" r="2.6"/>
							</g>
						</g>
					</g>
				</g>
			</g>
		</g>
		<g>
			<g>
				<g>
					<g>
						<g>
							<g>
								<g>
									<path d="M707.8,124.5h-32.1v-21.1h32.1V124.5z M677.7,122.5h28.1v-17.1h-28.1V122.5z"/>
								</g>
							</g>
						</g>
					</g>
				</g>
			</g>
			<g>
				<g>
					<g>
						<g>
							<g>
								<path d="M682,113.6c1.6-1.8,4.9-3.7,9.8-3.7c4.9,0,8.3,2,9.8,3.7h2.3c-1.4-3.8-7.1-5.8-12.2-5.8c-5.2,0-10.6,2-12,5.8H682z"
									/>
							</g>
						</g>
					</g>
				</g>
			</g>
			<g>
				<g>
					<g>
						<g>
							<g>
								<rect x="680.9" y="115.1" width="10.2" height="1.9"/>
							</g>
						</g>
					</g>
				</g>
			</g>
			<g>
				<g>
					<g>
						<g>
							<g>
								<rect x="680.9" y="118.5" width="10.2" height="1.9"/>
							</g>
						</g>
					</g>
				</g>
			</g>
			<g>
				<g>
					<g>
						<g>
							<g>
								<circle cx="699.8" cy="117.7" r="2.6"/>
							</g>
						</g>
					</g>
				</g>
			</g>
		</g>
		<g>
			<g>
				<g>
					<g>
						<g>
							<g>
								<g>
									<path d="M707.8,148.1h-32.1V127h32.1V148.1z M677.7,146.1h28.1V129h-28.1V146.1z"/>
								</g>
							</g>
						</g>
					</g>
				</g>
			</g>
			<g>
				<g>
					<g>
						<g>
							<g>
								<path d="M682,137.1c1.6-1.8,4.9-3.7,9.8-3.7c4.9,0,8.3,2,9.8,3.7h2.3c-1.4-3.8-7.1-5.8-12.2-5.8c-5.2,0-10.6,2-12,5.8H682z"
									/>
							</g>
						</g>
					</g>
				</g>
			</g>
			<g>
				<g>
					<g>
						<g>
							<g>
								<rect x="680.9" y="138.7" width="10.2" height="1.9"/>
							</g>
						</g>
					</g>
				</g>
			</g>
			<g>
				<g>
					<g>
						<g>
							<g>
								<rect x="680.9" y="142.1" width="10.2" height="1.9"/>
							</g>
						</g>
					</g>
				</g>
			</g>
			<g>
				<g>
					<g>
						<g>
							<g>
								<circle cx="699.8" cy="141.3" r="2.6"/>
							</g>
						</g>
					</g>
				</g>
			</g>
		</g>
		<g>
			<g>
				<g>
					<g>
						<g>
							<g>
								<g>
									<path d="M742.5,88.4h-32.1V67.3h32.1V88.4L742.5,88.4z M712.4,86.4h28.1V69.3h-28.1V86.4z"/>
								</g>
							</g>
						</g>
					</g>
				</g>
			</g>
			<g>
				<g>
					<g>
						<g>
							<g>
								<path d="M716.7,77.5c1.6-1.8,4.9-3.7,9.8-3.7c4.9,0,8.3,2,9.8,3.7h2.3c-1.4-3.8-7.1-5.8-12.2-5.8c-5.2,0-10.6,2-12,5.8
									H716.7z"/>
							</g>
						</g>
					</g>
				</g>
			</g>
			<g>
				<g>
					<g>
						<g>
							<g>
								<rect x="715.6" y="79" width="10.2" height="1.9"/>
							</g>
						</g>
					</g>
				</g>
			</g>
			<g>
				<g>
					<g>
						<g>
							<g>
								<rect x="715.6" y="82.4" width="10.2" height="1.9"/>
							</g>
						</g>
					</g>
				</g>
			</g>
			<g>
				<g>
					<g>
						<g>
							<g>
								<circle cx="734.5" cy="81.6" r="2.6"/>
							</g>
						</g>
					</g>
				</g>
			</g>
		</g>
		<g>
			<g>
				<g>
					<g>
						<g>
							<g>
								<g>
									<path d="M742.5,112h-32.1V90.9h32.1V112L742.5,112z M712.4,110h28.1V92.9h-28.1V110z"/>
								</g>
							</g>
						</g>
					</g>
				</g>
			</g>
			<g>
				<g>
					<g>
						<g>
							<g>
								<path d="M716.7,101c1.6-1.8,4.9-3.7,9.8-3.7c4.9,0,8.3,2,9.8,3.7h2.3c-1.4-3.8-7.1-5.8-12.2-5.8c-5.2,0-10.6,2-12,5.8H716.7
									z"/>
							</g>
						</g>
					</g>
				</g>
			</g>
			<g>
				<g>
					<g>
						<g>
							<g>
								<rect x="715.6" y="102.6" width="10.2" height="1.9"/>
							</g>
						</g>
					</g>
				</g>
			</g>
			<g>
				<g>
					<g>
						<g>
							<g>
								<rect x="715.6" y="106" width="10.2" height="1.9"/>
							</g>
						</g>
					</g>
				</g>
			</g>
			<g>
				<g>
					<g>
						<g>
							<g>
								<circle cx="734.5" cy="105.2" r="2.6"/>
							</g>
						</g>
					</g>
				</g>
			</g>
		</g>
		<g>
			<g>
				<g>
					<g>
						<g>
							<g>
								<g>
									<path d="M742.5,135.5h-32.1v-21.1h32.1V135.5L742.5,135.5z M712.4,133.5h28.1v-17.1h-28.1V133.5z"/>
								</g>
							</g>
						</g>
					</g>
				</g>
			</g>
			<g>
				<g>
					<g>
						<g>
							<g>
								<path d="M716.7,124.6c1.6-1.8,4.9-3.7,9.8-3.7c4.9,0,8.3,2,9.8,3.7h2.3c-1.4-3.8-7.1-5.8-12.2-5.8c-5.2,0-10.6,2-12,5.8
									H716.7z"/>
							</g>
						</g>
					</g>
				</g>
			</g>
			<g>
				<g>
					<g>
						<g>
							<g>
								<rect x="715.6" y="126.1" width="10.2" height="1.9"/>
							</g>
						</g>
					</g>
				</g>
			</g>
			<g>
				<g>
					<g>
						<g>
							<g>
								<rect x="715.6" y="129.5" width="10.2" height="1.9"/>
							</g>
						</g>
					</g>
				</g>
			</g>
			<g>
				<g>
					<g>
						<g>
							<g>
								<circle cx="734.5" cy="128.7" r="2.6"/>
							</g>
						</g>
					</g>
				</g>
			</g>
		</g>
		<g>
			<g>
				<g>
					<g>
						<g>
							<g>
								<g>
									<path d="M742.5,159.1h-32.1V138h32.1V159.1L742.5,159.1z M712.4,157.1h28.1V140h-28.1V157.1z"/>
								</g>
							</g>
						</g>
					</g>
				</g>
			</g>
			<g>
				<g>
					<g>
						<g>
							<g>
								<path d="M716.7,148.1c1.6-1.8,4.9-3.7,9.8-3.7c4.9,0,8.3,2,9.8,3.7h2.3c-1.4-3.8-7.1-5.8-12.2-5.8c-5.2,0-10.6,2-12,5.8
									H716.7z"/>
							</g>
						</g>
					</g>
				</g>
			</g>
			<g>
				<g>
					<g>
						<g>
							<g>
								<rect x="715.6" y="149.7" width="10.2" height="1.9"/>
							</g>
						</g>
					</g>
				</g>
			</g>
			<g>
				<g>
					<g>
						<g>
							<g>
								<rect x="715.6" y="153.1" width="10.2" height="1.9"/>
							</g>
						</g>
					</g>
				</g>
			</g>
			<g>
				<g>
					<g>
						<g>
							<g>
								<circle cx="734.5" cy="152.3" r="2.6"/>
							</g>
						</g>
					</g>
				</g>
			</g>
		</g>
	</g>
	<g>
		<g>
			<g>
				<g>
					<g>
						<path class="st1" d="M645.7,102.1c1,0,1.9-0.9,1.9-1.9v-4.4c0-0.7-0.5-1.6-1.1-2l-47.3-29.1c-0.6-0.4-1.7-0.4-2.3,0
							l-47.3,29.1c-0.6,0.4-1.1,1.3-1.1,2v4.4c0,1,0.8,1.9,1.9,1.9h5.7V144h-5.7c-1,0-1.9,0.9-1.9,1.9v7.6c0,1,0.8,1.9,1.9,1.9h95.3
							c1,0,1.9-0.9,1.9-1.9V146c0-1-0.9-1.9-1.9-1.9H640v-41.9h5.7V102.1z M579,140.2h-11.4v-28.6c0-3.2,2.6-5.7,5.7-5.7
							s5.7,2.6,5.7,5.7V140.2L579,140.2z M603.8,140.2h-11.4v-28.6c0-3.2,2.6-5.7,5.7-5.7s5.7,2.6,5.7,5.7V140.2L603.8,140.2z
							 M628.6,140.2h-11.4v-28.6c0-3.2,2.6-5.7,5.7-5.7s5.7,2.6,5.7,5.7V140.2L628.6,140.2z"/>
					</g>
				</g>
			</g>
		</g>
	</g>
	<g>
		<g>
			<g>
				<g>
					<g>
						<g>
							<g>
								<path d="M426.6,89.6h-32.1V68.5h32.1V89.6z M396.5,87.6h28.1V70.5h-28.1V87.6z"/>
							</g>
						</g>
					</g>
				</g>
			</g>
		</g>
		<g>
			<g>
				<g>
					<g>
						<g>
							<path d="M400.8,78.7c1.6-1.8,4.9-3.7,9.8-3.7s8.3,2,9.8,3.7h2.3c-1.4-3.8-7.1-5.8-12.2-5.8s-10.6,2-12,5.8H400.8z"/>
						</g>
					</g>
				</g>
			</g>
		</g>
		<g>
			<g>
				<g>
					<g>
						<g>
							<rect x="399.7" y="80.2" width="10.2" height="1.9"/>
						</g>
					</g>
				</g>
			</g>
		</g>
		<g>
			<g>
				<g>
					<g>
						<g>
							<rect x="399.7" y="83.6" width="10.2" height="1.9"/>
						</g>
					</g>
				</g>
			</g>
		</g>
		<g>
			<g>
				<g>
					<g>
						<g>
							<circle cx="418.6" cy="82.8" r="2.6"/>
						</g>
					</g>
				</g>
			</g>
		</g>
	</g>
	<g>
		<g>
			<g>
				<g>
					<g>
						<path class="st1" d="M468.5,121.2h10.6c0,9.7-7.9,17.5-17.5,17.5c-3.4,0-3.5,3.7,5.9,3.7c11.7,0,21.2-9.5,21.2-21.2l0,0h10.6
							l-15.4-15.4L468.5,121.2z"/>
					</g>
				</g>
			</g>
		</g>
	</g>
	<g>
		<g>
			<g>
				<g>
					<g>
						<path class="st1" d="M456.4,84.9c-11.7,0-21.2,9.5-21.2,21.2l0,0h-10.6l15.4,15.4l15.4-15.4h-10.6c0-9.7,7.9-17.5,17.5-17.5
							C465.6,88.6,465.8,84.9,456.4,84.9z"/>
					</g>
				</g>
			</g>
		</g>
	</g>
	<g>
		<g>
			<g>
				<g>
					<g>
						<g>
							<path class="st1" d="M117.8,63.4h34.1v14.2h-34.1C117.8,77.6,117.8,63.4,117.8,63.4z M115.8,79.9h38V61.1h-38V79.9
								L115.8,79.9z"/>
						</g>
					</g>
				</g>
			</g>
		</g>
		<g>
			<g>
				<g>
					<g>
						<g>
							<path class="st1" d="M146.2,70.5c0,1-0.8,1.7-1.7,1.7s-1.7-0.8-1.7-1.7s0.8-1.7,1.7-1.7S146.2,69.5,146.2,70.5"/>
						</g>
					</g>
				</g>
			</g>
		</g>
		<g>
			<g>
				<g>
					<g>
						<g>
							<path class="st1" d="M126.9,70.5c0,1-0.8,1.7-1.7,1.7s-1.7-0.8-1.7-1.7s0.8-1.7,1.7-1.7S126.9,69.5,126.9,70.5"/>
						</g>
					</g>
				</g>
			</g>
		</g>
		<g>
			<g>
				<g>
					<g>
						<g>
							<path class="st1" d="M134.8,65.5c-2.8,0-5,2.3-5,5s2.3,5,5,5s5-2.3,5-5S137.6,65.5,134.8,65.5z M134.8,68.7
								c-0.4,0-0.7,0.3-0.7,0.6c0,0.4,0.3,0.5,0.9,0.7c1.1,0.3,1.7,0.8,1.7,1.8c0,0.8-0.6,1.4-1.5,1.6v0.7h-1v-0.7
								c-0.9-0.2-1.5-1-1.5-1.9h1.3v0.2c0,0.4,0.3,0.7,0.7,0.7s0.7-0.3,0.7-0.6c0-0.4-0.4-0.5-0.9-0.7c-1.1-0.3-1.7-0.8-1.7-1.8
								c0-0.8,0.6-1.4,1.5-1.6V67h1v0.7c0.9,0.2,1.5,1,1.5,1.9h-1.3v-0.2C135.5,69,135.2,68.7,134.8,68.7z"/>
						</g>
					</g>
				</g>
			</g>
		</g>
	</g>
	<g>
		<g>
			<g>
				<g>
					<g>
						<g>
							<g>
								<path d="M242.9,158.1h-32.1V137h32.1V158.1L242.9,158.1z M212.9,156.1H241V139h-28.1V156.1z"/>
							</g>
						</g>
					</g>
				</g>
			</g>
		</g>
		<g>
			<g>
				<g>
					<g>
						<g>
							<path d="M217.2,147.2c1.6-1.8,4.9-3.7,9.8-3.7s8.3,1.9,9.8,3.7h2.3c-1.4-3.8-7.1-5.8-12.2-5.8s-10.6,2-12,5.8H217.2z"/>
						</g>
					</g>
				</g>
			</g>
		</g>
		<g>
			<g>
				<g>
					<g>
						<g>
							<rect x="216.1" y="148.7" width="10.2" height="1.9"/>
						</g>
					</g>
				</g>
			</g>
		</g>
		<g>
			<g>
				<g>
					<g>
						<g>
							<rect x="216.1" y="152.1" width="10.2" height="1.9"/>
						</g>
					</g>
				</g>
			</g>
		</g>
		<g>
			<g>
				<g>
					<g>
						<g>
							<circle cx="235" cy="151.3" r="2.6"/>
						</g>
					</g>
				</g>
			</g>
		</g>
	</g>
	<g>
		<g>
			<g>
				<g>
					<g>
						<g>
							<g>
								<path d="M526.9,158.2h-32.1v-21.1h32.1V158.2L526.9,158.2z M496.8,156.2h28.1v-17.1h-28.1L496.8,156.2L496.8,156.2z"/>
							</g>
						</g>
					</g>
				</g>
			</g>
		</g>
		<g>
			<g>
				<g>
					<g>
						<g>
							<path d="M501.1,147.3c1.6-1.8,4.9-3.7,9.8-3.7s8.3,1.9,9.8,3.7h2.3c-1.4-3.8-7.1-5.8-12.2-5.8s-10.6,2-12,5.8H501.1z"/>
						</g>
					</g>
				</g>
			</g>
		</g>
		<g>
			<g>
				<g>
					<g>
						<g>
							<rect x="500" y="148.8" width="10.2" height="1.9"/>
						</g>
					</g>
				</g>
			</g>
		</g>
		<g>
			<g>
				<g>
					<g>
						<g>
							<rect x="500" y="152.2" width="10.2" height="1.9"/>
						</g>
					</g>
				</g>
			</g>
		</g>
		<g>
			<g>
				<g>
					<g>
						<g>
							<circle cx="518.9" cy="151.4" r="2.6"/>
						</g>
					</g>
				</g>
			</g>
		</g>
	</g>
	<g>
		<path d="M14.8,170.9h3.4c1.6,0,2.7,0.2,3.4,0.7c0.7,0.5,1.1,1.2,1.1,2.2c0,0.7-0.2,1.2-0.5,1.7s-0.8,0.7-1.5,0.8v0.1
			c0.8,0.2,1.4,0.4,1.8,0.9c0.4,0.4,0.6,1,0.6,1.8c0,1-0.4,1.8-1.1,2.4c-0.7,0.6-1.7,0.9-3,0.9h-4.1V170.9z M16.7,175.6h1.8
			c0.8,0,1.4-0.1,1.7-0.4s0.5-0.7,0.5-1.3c0-0.5-0.2-0.9-0.6-1.2c-0.4-0.2-1-0.4-1.8-0.4h-1.6V175.6z M16.7,177.1v3.6h2
			c0.8,0,1.4-0.1,1.8-0.4s0.6-0.8,0.6-1.4c0-0.6-0.2-1-0.6-1.3s-1-0.4-1.9-0.4H16.7z"/>
		<path d="M32.8,178c0,1.4-0.4,2.5-1.1,3.3c-0.7,0.8-1.7,1.2-3,1.2c-0.8,0-1.5-0.2-2.1-0.5c-0.6-0.4-1.1-0.9-1.4-1.6
			c-0.3-0.7-0.5-1.5-0.5-2.4c0-1.4,0.4-2.5,1.1-3.3s1.7-1.2,3-1.2c1.3,0,2.2,0.4,3,1.2C32.5,175.5,32.8,176.6,32.8,178z M26.6,178
			c0,2,0.7,3,2.2,3c1.5,0,2.2-1,2.2-3c0-2-0.7-3-2.2-3c-0.8,0-1.3,0.3-1.7,0.8C26.7,176.3,26.6,177,26.6,178z"/>
		<path d="M42.6,182.3h-1.8V177c0-0.7-0.1-1.2-0.4-1.5c-0.3-0.3-0.7-0.5-1.3-0.5c-0.8,0-1.3,0.2-1.7,0.7s-0.5,1.2-0.5,2.3v4.3h-1.8
			v-8.6h1.4l0.3,1.1h0.1c0.3-0.4,0.6-0.7,1.1-1c0.5-0.2,1-0.3,1.6-0.3c2.1,0,3.1,1.1,3.1,3.2V182.3z"/>
		<path d="M48,182.5c-1.1,0-1.9-0.4-2.5-1.2c-0.6-0.8-0.9-1.9-0.9-3.3c0-1.4,0.3-2.5,0.9-3.3c0.6-0.8,1.5-1.2,2.5-1.2
			c1.1,0,2,0.4,2.6,1.3h0.1c-0.1-0.6-0.1-1.1-0.1-1.5v-3.1h1.8v12.2H51l-0.3-1.1h-0.1C50,182,49.2,182.5,48,182.5z M48.5,181
			c0.8,0,1.3-0.2,1.6-0.6s0.5-1.1,0.5-2.1V178c0-1.1-0.2-1.9-0.5-2.3c-0.4-0.5-0.9-0.7-1.7-0.7c-0.6,0-1.1,0.3-1.5,0.8
			c-0.3,0.5-0.5,1.3-0.5,2.2c0,1,0.2,1.7,0.5,2.2C47.3,180.7,47.8,181,48.5,181z"/>
		<path d="M62.4,181c0.4,0,0.9-0.1,1.3-0.2v1.4c-0.2,0.1-0.5,0.2-0.8,0.2s-0.7,0.1-1,0.1c-1.7,0-2.6-0.9-2.6-2.8V175h-1.2v-0.8
			l1.3-0.7l0.6-1.8h1.1v1.9h2.5v1.4h-2.5v4.6c0,0.4,0.1,0.8,0.3,1C61.8,180.9,62.1,181,62.4,181z"/>
		<path d="M69.9,173.5c0.4,0,0.7,0,0.9,0.1l-0.2,1.7c-0.3-0.1-0.5-0.1-0.8-0.1c-0.7,0-1.3,0.2-1.8,0.7c-0.5,0.5-0.7,1.1-0.7,1.9v4.5
			h-1.8v-8.6H67l0.2,1.5h0.1c0.3-0.5,0.7-0.9,1.1-1.2S69.4,173.5,69.9,173.5z"/>
		<path d="M77.8,182.3l-0.4-1.2h-0.1c-0.4,0.5-0.8,0.9-1.3,1.1s-1,0.3-1.6,0.3c-0.8,0-1.5-0.2-2-0.7s-0.7-1.1-0.7-1.9
			c0-0.9,0.3-1.6,1-2c0.7-0.5,1.7-0.7,3-0.7l1.5,0v-0.5c0-0.6-0.1-1-0.4-1.2s-0.7-0.4-1.2-0.4c-0.4,0-0.9,0.1-1.3,0.2
			s-0.8,0.3-1.2,0.5l-0.6-1.3c0.5-0.2,1-0.4,1.5-0.6c0.6-0.1,1.1-0.2,1.6-0.2c1.1,0,1.9,0.2,2.5,0.7c0.6,0.5,0.8,1.2,0.8,2.3v5.8
			H77.8z M75.1,181c0.7,0,1.2-0.2,1.6-0.6c0.4-0.4,0.6-0.9,0.6-1.6v-0.8l-1.1,0c-0.9,0-1.5,0.2-1.9,0.4c-0.4,0.3-0.6,0.7-0.6,1.2
			c0,0.4,0.1,0.7,0.3,0.9C74.3,180.9,74.6,181,75.1,181z"/>
		<path d="M84.6,182.5c-1.1,0-1.9-0.4-2.5-1.2c-0.6-0.8-0.9-1.9-0.9-3.3c0-1.4,0.3-2.5,0.9-3.3c0.6-0.8,1.5-1.2,2.5-1.2
			c1.1,0,2,0.4,2.6,1.3h0.1c-0.1-0.6-0.1-1.1-0.1-1.5v-3.1H89v12.2h-1.4l-0.3-1.1h-0.1C86.6,182,85.7,182.5,84.6,182.5z M85.1,181
			c0.8,0,1.3-0.2,1.6-0.6s0.5-1.1,0.5-2.1V178c0-1.1-0.2-1.9-0.5-2.3c-0.4-0.5-0.9-0.7-1.7-0.7c-0.6,0-1.1,0.3-1.5,0.8
			c-0.3,0.5-0.5,1.3-0.5,2.2c0,1,0.2,1.7,0.5,2.2C83.9,180.7,84.4,181,85.1,181z"/>
		<path d="M95.4,182.5c-1.3,0-2.4-0.4-3.2-1.2s-1.1-1.9-1.1-3.2c0-1.4,0.4-2.5,1.1-3.3s1.7-1.2,2.9-1.2c1.1,0,2,0.3,2.7,1
			c0.7,0.7,1,1.6,1,2.9v1H93c0,0.8,0.3,1.5,0.7,1.9c0.4,0.5,1,0.7,1.8,0.7c0.5,0,1,0,1.4-0.1c0.4-0.1,0.9-0.3,1.4-0.5v1.5
			c-0.4,0.2-0.9,0.4-1.4,0.5C96.6,182.4,96,182.5,95.4,182.5z M95.1,174.9c-0.6,0-1.1,0.2-1.4,0.6s-0.6,0.9-0.6,1.6H97
			c0-0.7-0.2-1.3-0.5-1.6C96.1,175.1,95.7,174.9,95.1,174.9z"/>
		<path d="M105.3,173.5c0.4,0,0.7,0,0.9,0.1l-0.2,1.7c-0.3-0.1-0.5-0.1-0.8-0.1c-0.7,0-1.3,0.2-1.8,0.7c-0.5,0.5-0.7,1.1-0.7,1.9
			v4.5h-1.8v-8.6h1.4l0.2,1.5h0.1c0.3-0.5,0.7-0.9,1.1-1.2S104.7,173.5,105.3,173.5z"/>
	</g>
	<g>
		<path d="M123.7,41.2c-1.2,0-2.1,0.4-2.8,1.2c-0.7,0.8-1,1.9-1,3.2c0,1.4,0.3,2.5,1,3.2c0.7,0.8,1.6,1.1,2.8,1.1
			c0.7,0,1.6-0.1,2.6-0.4v1.1c-0.7,0.3-1.7,0.4-2.7,0.4c-1.6,0-2.8-0.5-3.7-1.4c-0.9-1-1.3-2.3-1.3-4.1c0-1.1,0.2-2.1,0.6-2.9
			c0.4-0.8,1-1.5,1.8-1.9s1.7-0.7,2.8-0.7c1.1,0,2.1,0.2,2.9,0.6l-0.5,1.1C125.3,41.4,124.5,41.2,123.7,41.2z"/>
		<path d="M133.3,51l-0.2-1.1H133c-0.4,0.5-0.8,0.8-1.2,1c-0.4,0.2-0.9,0.3-1.5,0.3c-0.8,0-1.4-0.2-1.9-0.6c-0.5-0.4-0.7-1-0.7-1.8
			c0-1.6,1.3-2.5,3.9-2.5l1.4,0v-0.5c0-0.6-0.1-1.1-0.4-1.4c-0.3-0.3-0.7-0.5-1.3-0.5c-0.7,0-1.4,0.2-2.3,0.6l-0.4-0.9
			c0.4-0.2,0.8-0.4,1.3-0.5c0.5-0.1,0.9-0.2,1.4-0.2c1,0,1.7,0.2,2.1,0.6c0.5,0.4,0.7,1.1,0.7,2V51H133.3z M130.6,50.1
			c0.8,0,1.4-0.2,1.8-0.6c0.4-0.4,0.6-1,0.6-1.7V47l-1.2,0.1c-1,0-1.7,0.2-2.1,0.5c-0.4,0.3-0.6,0.7-0.6,1.2c0,0.4,0.1,0.8,0.4,1
			C129.8,50,130.1,50.1,130.6,50.1z"/>
		<path d="M141.9,48.8c0,0.7-0.3,1.3-0.8,1.7s-1.3,0.6-2.3,0.6c-1.1,0-1.9-0.2-2.5-0.5v-1.1c0.4,0.2,0.8,0.3,1.2,0.5
			c0.4,0.1,0.9,0.2,1.3,0.2c0.6,0,1.1-0.1,1.5-0.3c0.3-0.2,0.5-0.5,0.5-0.9c0-0.3-0.1-0.6-0.4-0.8c-0.3-0.2-0.8-0.5-1.6-0.8
			c-0.7-0.3-1.3-0.5-1.6-0.7c-0.3-0.2-0.5-0.4-0.7-0.7c-0.2-0.3-0.2-0.6-0.2-0.9c0-0.7,0.3-1.2,0.8-1.5c0.5-0.4,1.3-0.6,2.2-0.6
			c0.9,0,1.7,0.2,2.5,0.5l-0.4,1c-0.8-0.3-1.5-0.5-2.2-0.5c-0.6,0-1,0.1-1.3,0.3s-0.4,0.4-0.4,0.7c0,0.2,0.1,0.4,0.2,0.5
			c0.1,0.2,0.3,0.3,0.5,0.4s0.7,0.3,1.4,0.6c1,0.3,1.6,0.7,1.9,1C141.8,47.8,141.9,48.2,141.9,48.8z"/>
		<path d="M149.4,51v-5.2c0-0.7-0.1-1.1-0.4-1.5s-0.8-0.5-1.4-0.5c-0.8,0-1.5,0.2-1.8,0.7c-0.4,0.5-0.6,1.2-0.6,2.3V51h-1.2V39.6
			h1.2V43c0,0.4,0,0.8-0.1,1h0.1c0.2-0.4,0.6-0.7,1-0.9c0.4-0.2,0.9-0.3,1.5-0.3c1,0,1.7,0.2,2.2,0.7c0.5,0.5,0.7,1.2,0.7,2.2V51
			H149.4z"/>
	</g>
	<g>
		<path d="M405,37.9h-6V27.2h6v1.1h-4.7v3.4h4.4v1.1h-4.4v3.9h4.7V37.9z"/>
		<path d="M410.7,37.9h-1.2v-9.6h-3.4v-1.1h8v1.1h-3.4V37.9z"/>
		<path d="M417,37.9h-1.2V27.2h6v1.1H417v3.9h4.4v1.1H417V37.9z"/>
		<path d="M393.1,53.7c0,0.7-0.3,1.3-0.8,1.7s-1.3,0.6-2.3,0.6c-1.1,0-1.9-0.2-2.5-0.5v-1.1c0.4,0.2,0.8,0.3,1.2,0.5
			c0.4,0.1,0.9,0.2,1.3,0.2c0.6,0,1.1-0.1,1.5-0.3c0.3-0.2,0.5-0.5,0.5-0.9c0-0.3-0.1-0.6-0.4-0.8c-0.3-0.2-0.8-0.5-1.6-0.8
			c-0.7-0.3-1.3-0.5-1.6-0.7c-0.3-0.2-0.5-0.4-0.7-0.7c-0.2-0.3-0.2-0.6-0.2-0.9c0-0.7,0.3-1.2,0.8-1.5c0.5-0.4,1.3-0.6,2.2-0.6
			c0.9,0,1.7,0.2,2.5,0.5l-0.4,1c-0.8-0.3-1.5-0.5-2.2-0.5c-0.6,0-1,0.1-1.3,0.3s-0.4,0.4-0.4,0.7c0,0.2,0.1,0.4,0.2,0.5
			c0.1,0.2,0.3,0.3,0.5,0.4s0.7,0.3,1.4,0.6c1,0.3,1.6,0.7,1.9,1C392.9,52.7,393.1,53.2,393.1,53.7z"/>
		<path d="M400.5,55.9v-5.2c0-0.7-0.1-1.1-0.4-1.5s-0.8-0.5-1.4-0.5c-0.8,0-1.5,0.2-1.8,0.7c-0.4,0.5-0.6,1.2-0.6,2.3v4.2H395V44.5
			h1.2V48c0,0.4,0,0.8-0.1,1h0.1c0.2-0.4,0.6-0.7,1-0.9c0.4-0.2,0.9-0.3,1.5-0.3c1,0,1.7,0.2,2.2,0.7c0.5,0.5,0.7,1.2,0.7,2.2v5.2
			H400.5z"/>
		<path d="M409.2,55.9l-0.2-1.1h-0.1c-0.4,0.5-0.8,0.8-1.2,1c-0.4,0.2-0.9,0.3-1.5,0.3c-0.8,0-1.4-0.2-1.9-0.6
			c-0.5-0.4-0.7-1-0.7-1.8c0-1.6,1.3-2.5,3.9-2.5l1.4,0v-0.5c0-0.6-0.1-1.1-0.4-1.4c-0.3-0.3-0.7-0.5-1.3-0.5
			c-0.7,0-1.4,0.2-2.3,0.6l-0.4-0.9c0.4-0.2,0.8-0.4,1.3-0.5c0.5-0.1,0.9-0.2,1.4-0.2c1,0,1.7,0.2,2.1,0.6c0.5,0.4,0.7,1.1,0.7,2
			v5.5H409.2z M406.4,55c0.8,0,1.4-0.2,1.8-0.6c0.4-0.4,0.6-1,0.6-1.7V52l-1.2,0.1c-1,0-1.7,0.2-2.1,0.5c-0.4,0.3-0.6,0.7-0.6,1.2
			c0,0.4,0.1,0.8,0.4,1C405.6,54.9,406,55,406.4,55z"/>
		<path d="M416.3,47.7c0.4,0,0.7,0,1,0.1l-0.2,1.1c-0.3-0.1-0.6-0.1-0.9-0.1c-0.6,0-1.2,0.3-1.7,0.8c-0.5,0.5-0.7,1.2-0.7,2v4.3
			h-1.2v-8h1l0.1,1.5h0.1c0.3-0.5,0.7-0.9,1.1-1.2S415.8,47.7,416.3,47.7z"/>
		<path d="M422.1,56c-1.2,0-2.1-0.4-2.8-1.1c-0.7-0.7-1-1.7-1-3c0-1.3,0.3-2.3,1-3.1c0.6-0.8,1.5-1.1,2.6-1.1c1,0,1.8,0.3,2.4,1
			c0.6,0.7,0.9,1.5,0.9,2.6v0.8h-5.5c0,0.9,0.3,1.7,0.7,2.1c0.5,0.5,1.1,0.7,1.9,0.7c0.9,0,1.7-0.2,2.6-0.5v1.1
			c-0.4,0.2-0.8,0.3-1.2,0.4C423.1,56,422.7,56,422.1,56z M421.8,48.7c-0.6,0-1.2,0.2-1.5,0.6c-0.4,0.4-0.6,1-0.7,1.7h4.2
			c0-0.8-0.2-1.4-0.5-1.8C422.9,48.9,422.4,48.7,421.8,48.7z"/>
		<path d="M432.3,53.7c0,0.7-0.3,1.3-0.8,1.7s-1.3,0.6-2.3,0.6c-1.1,0-1.9-0.2-2.5-0.5v-1.1c0.4,0.2,0.8,0.3,1.2,0.5
			c0.4,0.1,0.9,0.2,1.3,0.2c0.6,0,1.1-0.1,1.5-0.3c0.3-0.2,0.5-0.5,0.5-0.9c0-0.3-0.1-0.6-0.4-0.8c-0.3-0.2-0.8-0.5-1.6-0.8
			c-0.7-0.3-1.3-0.5-1.6-0.7c-0.3-0.2-0.5-0.4-0.7-0.7c-0.2-0.3-0.2-0.6-0.2-0.9c0-0.7,0.3-1.2,0.8-1.5c0.5-0.4,1.3-0.6,2.2-0.6
			c0.9,0,1.7,0.2,2.5,0.5l-0.4,1c-0.8-0.3-1.5-0.5-2.2-0.5c-0.6,0-1,0.1-1.3,0.3s-0.4,0.4-0.4,0.7c0,0.2,0.1,0.4,0.2,0.5
			c0.1,0.2,0.3,0.3,0.5,0.4s0.7,0.3,1.4,0.6c1,0.3,1.6,0.7,1.9,1C432.1,52.7,432.3,53.2,432.3,53.7z"/>
	</g>
	<g>
		<path d="M669,21.4l-1.3-3.4h-4.3l-1.3,3.4h-1.3l4.2-10.8h1l4.2,10.8H669z M667.3,16.9l-1.2-3.3c-0.2-0.4-0.3-0.9-0.5-1.5
			c-0.1,0.5-0.3,1-0.5,1.5l-1.3,3.3H667.3z"/>
		<path d="M676.8,19.2c0,0.7-0.3,1.3-0.8,1.7s-1.3,0.6-2.3,0.6c-1.1,0-1.9-0.2-2.5-0.5v-1.1c0.4,0.2,0.8,0.3,1.2,0.5
			c0.4,0.1,0.9,0.2,1.3,0.2c0.6,0,1.1-0.1,1.5-0.3c0.3-0.2,0.5-0.5,0.5-0.9c0-0.3-0.1-0.6-0.4-0.8c-0.3-0.2-0.8-0.5-1.6-0.8
			c-0.7-0.3-1.3-0.5-1.6-0.7c-0.3-0.2-0.5-0.4-0.7-0.7c-0.2-0.3-0.2-0.6-0.2-0.9c0-0.7,0.3-1.2,0.8-1.5c0.5-0.4,1.3-0.6,2.2-0.6
			c0.9,0,1.7,0.2,2.5,0.5l-0.4,1c-0.8-0.3-1.5-0.5-2.2-0.5c-0.6,0-1,0.1-1.3,0.3s-0.4,0.4-0.4,0.7c0,0.2,0.1,0.4,0.2,0.5
			c0.1,0.2,0.3,0.3,0.5,0.4s0.7,0.3,1.4,0.6c1,0.3,1.6,0.7,1.9,1C676.6,18.2,676.8,18.7,676.8,19.2z"/>
		<path d="M684,19.2c0,0.7-0.3,1.3-0.8,1.7s-1.3,0.6-2.3,0.6c-1.1,0-1.9-0.2-2.5-0.5v-1.1c0.4,0.2,0.8,0.3,1.2,0.5
			c0.4,0.1,0.9,0.2,1.3,0.2c0.6,0,1.1-0.1,1.5-0.3c0.3-0.2,0.5-0.5,0.5-0.9c0-0.3-0.1-0.6-0.4-0.8c-0.3-0.2-0.8-0.5-1.6-0.8
			c-0.7-0.3-1.3-0.5-1.6-0.7c-0.3-0.2-0.5-0.4-0.7-0.7c-0.2-0.3-0.2-0.6-0.2-0.9c0-0.7,0.3-1.2,0.8-1.5c0.5-0.4,1.3-0.6,2.2-0.6
			c0.9,0,1.7,0.2,2.5,0.5l-0.4,1c-0.8-0.3-1.5-0.5-2.2-0.5c-0.6,0-1,0.1-1.3,0.3s-0.4,0.4-0.4,0.7c0,0.2,0.1,0.4,0.2,0.5
			c0.1,0.2,0.3,0.3,0.5,0.4s0.7,0.3,1.4,0.6c1,0.3,1.6,0.7,1.9,1C683.8,18.2,684,18.7,684,19.2z"/>
		<path d="M689.3,21.5c-1.2,0-2.1-0.4-2.8-1.1c-0.7-0.7-1-1.7-1-3c0-1.3,0.3-2.3,1-3.1c0.6-0.8,1.5-1.1,2.6-1.1c1,0,1.8,0.3,2.4,1
			c0.6,0.7,0.9,1.5,0.9,2.6v0.8h-5.5c0,0.9,0.3,1.7,0.7,2.1c0.5,0.5,1.1,0.7,1.9,0.7c0.9,0,1.7-0.2,2.6-0.5V21
			c-0.4,0.2-0.8,0.3-1.2,0.4C690.3,21.5,689.9,21.5,689.3,21.5z M689,14.2c-0.6,0-1.2,0.2-1.5,0.6c-0.4,0.4-0.6,1-0.7,1.7h4.2
			c0-0.8-0.2-1.4-0.5-1.8C690.1,14.4,689.6,14.2,689,14.2z"/>
		<path d="M696.9,20.5c0.2,0,0.4,0,0.6,0c0.2,0,0.4-0.1,0.5-0.1v0.9c-0.1,0.1-0.3,0.1-0.6,0.2c-0.3,0-0.5,0.1-0.7,0.1
			c-1.6,0-2.3-0.8-2.3-2.5v-4.8h-1.2v-0.6l1.2-0.5l0.5-1.7h0.7v1.9h2.3v0.9h-2.3V19c0,0.5,0.1,0.9,0.3,1.1S696.5,20.5,696.9,20.5z"
			/>
		<path d="M704.8,19.2c0,0.7-0.3,1.3-0.8,1.7s-1.3,0.6-2.3,0.6c-1.1,0-1.9-0.2-2.5-0.5v-1.1c0.4,0.2,0.8,0.3,1.2,0.5
			c0.4,0.1,0.9,0.2,1.3,0.2c0.6,0,1.1-0.1,1.5-0.3c0.3-0.2,0.5-0.5,0.5-0.9c0-0.3-0.1-0.6-0.4-0.8c-0.3-0.2-0.8-0.5-1.6-0.8
			c-0.7-0.3-1.3-0.5-1.6-0.7c-0.3-0.2-0.5-0.4-0.7-0.7c-0.2-0.3-0.2-0.6-0.2-0.9c0-0.7,0.3-1.2,0.8-1.5c0.5-0.4,1.3-0.6,2.2-0.6
			c0.9,0,1.7,0.2,2.5,0.5l-0.4,1c-0.8-0.3-1.5-0.5-2.2-0.5c-0.6,0-1,0.1-1.3,0.3s-0.4,0.4-0.4,0.7c0,0.2,0.1,0.4,0.2,0.5
			c0.1,0.2,0.3,0.3,0.5,0.4s0.7,0.3,1.4,0.6c1,0.3,1.6,0.7,1.9,1C704.7,18.2,704.8,18.7,704.8,19.2z"/>
		<path d="M711.8,13.4v5.2c0,0.7,0.1,1.1,0.4,1.5s0.8,0.5,1.4,0.5c0.8,0,1.5-0.2,1.8-0.7c0.4-0.5,0.6-1.2,0.6-2.2v-4.2h1.2v8h-1
			l-0.2-1.1h-0.1c-0.2,0.4-0.6,0.7-1,0.9c-0.4,0.2-0.9,0.3-1.5,0.3c-1,0-1.7-0.2-2.2-0.7c-0.5-0.5-0.7-1.2-0.7-2.2v-5.3H711.8z"/>
		<path d="M725.4,21.4v-5.2c0-0.7-0.1-1.1-0.4-1.5s-0.8-0.5-1.4-0.5c-0.8,0-1.5,0.2-1.8,0.7s-0.6,1.2-0.6,2.2v4.2h-1.2v-8h1l0.2,1.1
			h0.1c0.2-0.4,0.6-0.7,1-0.9c0.4-0.2,0.9-0.3,1.5-0.3c1,0,1.7,0.2,2.2,0.7c0.5,0.5,0.7,1.2,0.7,2.2v5.2H725.4z"/>
		<path d="M734.6,20.3L734.6,20.3c-0.6,0.8-1.5,1.2-2.6,1.2c-1,0-1.9-0.4-2.4-1.1c-0.6-0.7-0.9-1.7-0.9-3.1c0-1.3,0.3-2.4,0.9-3.1
			s1.4-1.1,2.4-1.1c1.1,0,1.9,0.4,2.5,1.2h0.1l-0.1-0.6l0-0.6V10h1.2v11.4h-1L734.6,20.3z M732.1,20.5c0.8,0,1.4-0.2,1.8-0.7
			c0.4-0.5,0.6-1.2,0.6-2.2v-0.3c0-1.1-0.2-1.9-0.6-2.4c-0.4-0.5-1-0.7-1.8-0.7c-0.7,0-1.3,0.3-1.6,0.8c-0.4,0.6-0.6,1.3-0.6,2.3
			c0,1,0.2,1.8,0.6,2.3S731.4,20.5,732.1,20.5z"/>
		<path d="M741.7,21.5c-1.2,0-2.1-0.4-2.8-1.1c-0.7-0.7-1-1.7-1-3c0-1.3,0.3-2.3,1-3.1c0.6-0.8,1.5-1.1,2.6-1.1c1,0,1.8,0.3,2.4,1
			c0.6,0.7,0.9,1.5,0.9,2.6v0.8h-5.5c0,0.9,0.3,1.7,0.7,2.1c0.5,0.5,1.1,0.7,1.9,0.7c0.9,0,1.7-0.2,2.6-0.5V21
			c-0.4,0.2-0.8,0.3-1.2,0.4C742.7,21.5,742.2,21.5,741.7,21.5z M741.4,14.2c-0.6,0-1.2,0.2-1.5,0.6c-0.4,0.4-0.6,1-0.7,1.7h4.2
			c0-0.8-0.2-1.4-0.5-1.8C742.5,14.4,742,14.2,741.4,14.2z"/>
		<path d="M750.4,13.2c0.4,0,0.7,0,1,0.1l-0.2,1.1c-0.3-0.1-0.6-0.1-0.9-0.1c-0.6,0-1.2,0.3-1.7,0.8c-0.5,0.5-0.7,1.2-0.7,2v4.3
			h-1.2v-8h1l0.1,1.5h0.1c0.3-0.5,0.7-0.9,1.1-1.2S749.9,13.2,750.4,13.2z"/>
		<path d="M671,39.4v-5.2c0-0.6-0.1-1.1-0.4-1.4c-0.3-0.3-0.7-0.5-1.3-0.5c-0.8,0-1.3,0.2-1.7,0.7s-0.5,1.1-0.5,2v4.5h-1.2v-5.2
			c0-0.6-0.1-1.1-0.4-1.4c-0.3-0.3-0.7-0.5-1.3-0.5c-0.8,0-1.3,0.2-1.7,0.7c-0.4,0.5-0.5,1.2-0.5,2.2v4.2h-1.2v-8h1l0.2,1.1h0.1
			c0.2-0.4,0.6-0.7,1-0.9c0.4-0.2,0.9-0.3,1.4-0.3c1.3,0,2.1,0.5,2.5,1.4h0.1c0.2-0.4,0.6-0.8,1-1s1-0.4,1.6-0.4
			c0.9,0,1.6,0.2,2,0.7c0.5,0.5,0.7,1.2,0.7,2.2v5.2H671z"/>
		<path d="M679.7,39.4l-0.2-1.1h-0.1c-0.4,0.5-0.8,0.8-1.2,1c-0.4,0.2-0.9,0.3-1.5,0.3c-0.8,0-1.4-0.2-1.9-0.6
			c-0.5-0.4-0.7-1-0.7-1.8c0-1.6,1.3-2.5,3.9-2.5l1.4,0v-0.5c0-0.6-0.1-1.1-0.4-1.4c-0.3-0.3-0.7-0.5-1.3-0.5
			c-0.7,0-1.4,0.2-2.3,0.6l-0.4-0.9c0.4-0.2,0.8-0.4,1.3-0.5c0.5-0.1,0.9-0.2,1.4-0.2c1,0,1.7,0.2,2.1,0.6c0.5,0.4,0.7,1.1,0.7,2
			v5.5H679.7z M677,38.5c0.8,0,1.4-0.2,1.8-0.6c0.4-0.4,0.6-1,0.6-1.7v-0.7l-1.2,0.1c-1,0-1.7,0.2-2.1,0.5c-0.4,0.3-0.6,0.7-0.6,1.2
			c0,0.4,0.1,0.8,0.4,1C676.1,38.4,676.5,38.5,677,38.5z"/>
		<path d="M688.6,39.4v-5.2c0-0.7-0.1-1.1-0.4-1.5s-0.8-0.5-1.4-0.5c-0.8,0-1.5,0.2-1.8,0.7s-0.6,1.2-0.6,2.2v4.2h-1.2v-8h1l0.2,1.1
			h0.1c0.2-0.4,0.6-0.7,1-0.9c0.4-0.2,0.9-0.3,1.5-0.3c1,0,1.7,0.2,2.2,0.7c0.5,0.5,0.7,1.2,0.7,2.2v5.2H688.6z"/>
		<path d="M697.3,39.4l-0.2-1.1H697c-0.4,0.5-0.8,0.8-1.2,1c-0.4,0.2-0.9,0.3-1.5,0.3c-0.8,0-1.4-0.2-1.9-0.6
			c-0.5-0.4-0.7-1-0.7-1.8c0-1.6,1.3-2.5,3.9-2.5l1.4,0v-0.5c0-0.6-0.1-1.1-0.4-1.4c-0.3-0.3-0.7-0.5-1.3-0.5
			c-0.7,0-1.4,0.2-2.3,0.6l-0.4-0.9c0.4-0.2,0.8-0.4,1.3-0.5c0.5-0.1,0.9-0.2,1.4-0.2c1,0,1.7,0.2,2.1,0.6c0.5,0.4,0.7,1.1,0.7,2
			v5.5H697.3z M694.5,38.5c0.8,0,1.4-0.2,1.8-0.6c0.4-0.4,0.6-1,0.6-1.7v-0.7l-1.2,0.1c-1,0-1.7,0.2-2.1,0.5
			c-0.4,0.3-0.6,0.7-0.6,1.2c0,0.4,0.1,0.8,0.4,1C693.7,38.4,694,38.5,694.5,38.5z"/>
		<path d="M707.2,31.4v0.8l-1.5,0.2c0.1,0.2,0.3,0.4,0.4,0.7c0.1,0.3,0.2,0.6,0.2,0.9c0,0.8-0.3,1.4-0.8,1.9s-1.3,0.7-2.2,0.7
			c-0.2,0-0.5,0-0.7-0.1c-0.5,0.3-0.8,0.6-0.8,1c0,0.2,0.1,0.4,0.3,0.5c0.2,0.1,0.5,0.2,0.9,0.2h1.4c0.9,0,1.5,0.2,2,0.5
			c0.5,0.4,0.7,0.9,0.7,1.6c0,0.9-0.4,1.6-1.1,2c-0.7,0.5-1.8,0.7-3.1,0.7c-1,0-1.9-0.2-2.4-0.6c-0.6-0.4-0.9-0.9-0.9-1.7
			c0-0.5,0.2-0.9,0.5-1.3c0.3-0.4,0.8-0.6,1.3-0.7c-0.2-0.1-0.4-0.2-0.5-0.4c-0.1-0.2-0.2-0.4-0.2-0.7c0-0.3,0.1-0.5,0.2-0.8
			c0.2-0.2,0.4-0.4,0.7-0.6c-0.4-0.2-0.8-0.5-1-0.9c-0.3-0.4-0.4-0.9-0.4-1.4c0-0.9,0.3-1.6,0.8-2c0.5-0.5,1.3-0.7,2.2-0.7
			c0.4,0,0.8,0,1.1,0.1H707.2z M700.8,40.7c0,0.4,0.2,0.8,0.5,1s0.9,0.3,1.6,0.3c1,0,1.8-0.2,2.3-0.5c0.5-0.3,0.7-0.7,0.7-1.2
			c0-0.4-0.1-0.7-0.4-0.9c-0.3-0.2-0.8-0.3-1.5-0.3h-1.5c-0.6,0-1,0.1-1.3,0.4S700.8,40.3,700.8,40.7z M701.5,33.9
			c0,0.6,0.2,1,0.5,1.3s0.8,0.4,1.3,0.4c1.2,0,1.8-0.6,1.8-1.7c0-1.2-0.6-1.8-1.8-1.8c-0.6,0-1,0.2-1.3,0.5S701.5,33.3,701.5,33.9z"
			/>
		<path d="M712.3,39.5c-1.2,0-2.1-0.4-2.8-1.1c-0.7-0.7-1-1.7-1-3c0-1.3,0.3-2.3,1-3.1c0.6-0.8,1.5-1.1,2.6-1.1c1,0,1.8,0.3,2.4,1
			c0.6,0.7,0.9,1.5,0.9,2.6v0.8h-5.5c0,0.9,0.3,1.7,0.7,2.1c0.5,0.5,1.1,0.7,1.9,0.7c0.9,0,1.7-0.2,2.6-0.5V39
			c-0.4,0.2-0.8,0.3-1.2,0.4C713.3,39.5,712.8,39.5,712.3,39.5z M711.9,32.2c-0.6,0-1.2,0.2-1.5,0.6c-0.4,0.4-0.6,1-0.7,1.7h4.2
			c0-0.8-0.2-1.4-0.5-1.8C713.1,32.4,712.6,32.2,711.9,32.2z"/>
		<path d="M727.5,39.4v-5.2c0-0.6-0.1-1.1-0.4-1.4c-0.3-0.3-0.7-0.5-1.3-0.5c-0.8,0-1.3,0.2-1.7,0.7s-0.5,1.1-0.5,2v4.5h-1.2v-5.2
			c0-0.6-0.1-1.1-0.4-1.4c-0.3-0.3-0.7-0.5-1.3-0.5c-0.8,0-1.3,0.2-1.7,0.7c-0.4,0.5-0.5,1.2-0.5,2.2v4.2h-1.2v-8h1l0.2,1.1h0.1
			c0.2-0.4,0.6-0.7,1-0.9c0.4-0.2,0.9-0.3,1.4-0.3c1.3,0,2.1,0.5,2.5,1.4h0.1c0.2-0.4,0.6-0.8,1-1s1-0.4,1.6-0.4
			c0.9,0,1.6,0.2,2,0.7c0.5,0.5,0.7,1.2,0.7,2.2v5.2H727.5z"/>
		<path d="M734.6,39.5c-1.2,0-2.1-0.4-2.8-1.1c-0.7-0.7-1-1.7-1-3c0-1.3,0.3-2.3,1-3.1c0.6-0.8,1.5-1.1,2.6-1.1c1,0,1.8,0.3,2.4,1
			c0.6,0.7,0.9,1.5,0.9,2.6v0.8h-5.5c0,0.9,0.3,1.7,0.7,2.1c0.5,0.5,1.1,0.7,1.9,0.7c0.9,0,1.7-0.2,2.6-0.5V39
			c-0.4,0.2-0.8,0.3-1.2,0.4C735.6,39.5,735.2,39.5,734.6,39.5z M734.3,32.2c-0.6,0-1.2,0.2-1.5,0.6c-0.4,0.4-0.6,1-0.7,1.7h4.2
			c0-0.8-0.2-1.4-0.5-1.8C735.4,32.4,734.9,32.2,734.3,32.2z"/>
		<path d="M745.2,39.4v-5.2c0-0.7-0.1-1.1-0.4-1.5s-0.8-0.5-1.4-0.5c-0.8,0-1.5,0.2-1.8,0.7s-0.6,1.2-0.6,2.2v4.2h-1.2v-8h1l0.2,1.1
			h0.1c0.2-0.4,0.6-0.7,1-0.9c0.4-0.2,1-0.3,1.5-0.3c1,0,1.7,0.2,2.2,0.7c0.5,0.5,0.7,1.2,0.7,2.2v5.2H745.2z"/>
		<path d="M751.5,38.5c0.2,0,0.4,0,0.6,0c0.2,0,0.4-0.1,0.5-0.1v0.9c-0.1,0.1-0.3,0.1-0.6,0.2c-0.3,0-0.5,0.1-0.7,0.1
			c-1.6,0-2.3-0.8-2.3-2.5v-4.8h-1.1v-0.6l1.1-0.5l0.5-1.7h0.7v1.9h2.3v0.9h-2.3V37c0,0.5,0.1,0.9,0.3,1.1S751.1,38.5,751.5,38.5z"
			/>
	</g>
	<g>
		<path d="M205.9,168h3c1.4,0,2.4,0.2,3.1,0.6c0.6,0.4,1,1.1,1,2c0,0.6-0.2,1.2-0.5,1.6c-0.4,0.4-0.9,0.7-1.5,0.8v0.1
			c1.6,0.3,2.4,1.1,2.4,2.6c0,1-0.3,1.7-1,2.2s-1.6,0.8-2.7,0.8h-3.7V168z M207.2,172.6h2.1c0.9,0,1.5-0.1,1.9-0.4
			c0.4-0.3,0.6-0.7,0.6-1.4c0-0.6-0.2-1-0.6-1.3c-0.4-0.3-1.1-0.4-2.1-0.4h-1.8V172.6z M207.2,173.6v4h2.2c0.9,0,1.5-0.2,2-0.5
			c0.4-0.3,0.7-0.9,0.7-1.6c0-0.7-0.2-1.2-0.7-1.5c-0.4-0.3-1.1-0.5-2-0.5H207.2z"/>
		<path d="M222.4,174.7c0,1.3-0.3,2.3-1,3.1c-0.7,0.7-1.6,1.1-2.7,1.1c-0.7,0-1.4-0.2-1.9-0.5c-0.6-0.3-1-0.8-1.3-1.4
			c-0.3-0.6-0.5-1.4-0.5-2.2c0-1.3,0.3-2.3,1-3.1c0.7-0.7,1.6-1.1,2.7-1.1c1.1,0,2,0.4,2.7,1.1C222.1,172.4,222.4,173.4,222.4,174.7
			z M216.3,174.7c0,1,0.2,1.8,0.6,2.3c0.4,0.5,1,0.8,1.8,0.8s1.4-0.3,1.8-0.8c0.4-0.5,0.6-1.3,0.6-2.3c0-1-0.2-1.8-0.6-2.3
			c-0.4-0.5-1-0.8-1.8-0.8c-0.8,0-1.4,0.3-1.8,0.8S216.3,173.6,216.3,174.7z"/>
		<path d="M230,178.7v-5.2c0-0.7-0.1-1.1-0.4-1.5s-0.8-0.5-1.4-0.5c-0.8,0-1.5,0.2-1.8,0.7s-0.6,1.2-0.6,2.2v4.2h-1.2v-8h1l0.2,1.1
			h0.1c0.2-0.4,0.6-0.7,1-0.9c0.4-0.2,0.9-0.3,1.5-0.3c1,0,1.7,0.2,2.2,0.7c0.5,0.5,0.7,1.2,0.7,2.2v5.2H230z"/>
		<path d="M239.2,177.6L239.2,177.6c-0.6,0.8-1.5,1.2-2.6,1.2c-1,0-1.9-0.4-2.4-1.1c-0.6-0.7-0.9-1.7-0.9-3.1c0-1.3,0.3-2.4,0.9-3.1
			s1.4-1.1,2.4-1.1c1.1,0,1.9,0.4,2.5,1.2h0.1l-0.1-0.6l0-0.6v-3.3h1.2v11.4h-1L239.2,177.6z M236.8,177.8c0.8,0,1.4-0.2,1.8-0.7
			c0.4-0.5,0.6-1.2,0.6-2.2v-0.3c0-1.1-0.2-1.9-0.6-2.4c-0.4-0.5-1-0.7-1.8-0.7c-0.7,0-1.3,0.3-1.6,0.8c-0.4,0.6-0.6,1.3-0.6,2.3
			c0,1,0.2,1.8,0.6,2.3S236,177.8,236.8,177.8z"/>
		<path d="M248.1,176.5c0,0.7-0.3,1.3-0.8,1.7s-1.3,0.6-2.3,0.6c-1.1,0-1.9-0.2-2.5-0.5v-1.1c0.4,0.2,0.8,0.3,1.2,0.5
			c0.4,0.1,0.9,0.2,1.3,0.2c0.6,0,1.1-0.1,1.5-0.3c0.3-0.2,0.5-0.5,0.5-0.9c0-0.3-0.1-0.6-0.4-0.8c-0.3-0.2-0.8-0.5-1.6-0.8
			c-0.7-0.3-1.3-0.5-1.6-0.7c-0.3-0.2-0.5-0.4-0.7-0.7c-0.2-0.3-0.2-0.6-0.2-0.9c0-0.7,0.3-1.2,0.8-1.5c0.5-0.4,1.3-0.6,2.2-0.6
			c0.9,0,1.7,0.2,2.5,0.5l-0.4,1c-0.8-0.3-1.5-0.5-2.2-0.5c-0.6,0-1,0.1-1.3,0.3s-0.4,0.4-0.4,0.7c0,0.2,0.1,0.4,0.2,0.5
			c0.1,0.2,0.3,0.3,0.5,0.4s0.7,0.3,1.4,0.6c1,0.3,1.6,0.7,1.9,1C247.9,175.5,248.1,176,248.1,176.5z"/>
	</g>
	<g>
		<path d="M489.9,168h3c1.4,0,2.4,0.2,3.1,0.6c0.6,0.4,1,1.1,1,2c0,0.6-0.2,1.2-0.5,1.6c-0.4,0.4-0.9,0.7-1.5,0.8v0.1
			c1.6,0.3,2.4,1.1,2.4,2.6c0,1-0.3,1.7-1,2.2c-0.6,0.5-1.6,0.8-2.7,0.8h-3.7V168z M491.1,172.6h2.1c0.9,0,1.5-0.1,1.9-0.4
			c0.4-0.3,0.6-0.7,0.6-1.4c0-0.6-0.2-1-0.6-1.3c-0.4-0.3-1.1-0.4-2.1-0.4h-1.8V172.6z M491.1,173.6v4h2.2c0.9,0,1.5-0.2,2-0.5
			c0.4-0.3,0.7-0.9,0.7-1.6c0-0.7-0.2-1.2-0.7-1.5c-0.4-0.3-1.1-0.5-2-0.5H491.1z"/>
		<path d="M506.3,174.7c0,1.3-0.3,2.3-1,3.1c-0.7,0.7-1.6,1.1-2.7,1.1c-0.7,0-1.4-0.2-1.9-0.5c-0.6-0.3-1-0.8-1.3-1.4
			c-0.3-0.6-0.5-1.4-0.5-2.2c0-1.3,0.3-2.3,1-3.1c0.7-0.7,1.6-1.1,2.7-1.1c1.1,0,2,0.4,2.7,1.1C506,172.4,506.3,173.4,506.3,174.7z
			 M500.2,174.7c0,1,0.2,1.8,0.6,2.3c0.4,0.5,1,0.8,1.8,0.8s1.4-0.3,1.8-0.8c0.4-0.5,0.6-1.3,0.6-2.3c0-1-0.2-1.8-0.6-2.3
			c-0.4-0.5-1-0.8-1.8-0.8c-0.8,0-1.4,0.3-1.8,0.8S500.2,173.6,500.2,174.7z"/>
		<path d="M514,178.7v-5.2c0-0.7-0.1-1.1-0.4-1.5s-0.8-0.5-1.4-0.5c-0.8,0-1.5,0.2-1.8,0.7s-0.6,1.2-0.6,2.2v4.2h-1.2v-8h1l0.2,1.1
			h0.1c0.2-0.4,0.6-0.7,1-0.9c0.4-0.2,1-0.3,1.5-0.3c1,0,1.7,0.2,2.2,0.7c0.5,0.5,0.7,1.2,0.7,2.2v5.2H514z"/>
		<path d="M523.1,177.6L523.1,177.6c-0.6,0.8-1.5,1.2-2.6,1.2c-1,0-1.9-0.4-2.5-1.1c-0.6-0.7-0.9-1.7-0.9-3.1c0-1.3,0.3-2.4,0.9-3.1
			s1.4-1.1,2.4-1.1c1.1,0,1.9,0.4,2.5,1.2h0.1l-0.1-0.6l0-0.6v-3.3h1.2v11.4h-1L523.1,177.6z M520.7,177.8c0.8,0,1.4-0.2,1.8-0.7
			c0.4-0.5,0.6-1.2,0.6-2.2v-0.3c0-1.1-0.2-1.9-0.6-2.4c-0.4-0.5-1-0.7-1.8-0.7c-0.7,0-1.3,0.3-1.6,0.8c-0.4,0.6-0.6,1.3-0.6,2.3
			c0,1,0.2,1.8,0.6,2.3S520,177.8,520.7,177.8z"/>
		<path d="M532,176.5c0,0.7-0.3,1.3-0.8,1.7s-1.3,0.6-2.3,0.6c-1.1,0-1.9-0.2-2.5-0.5v-1.1c0.4,0.2,0.8,0.3,1.2,0.5
			c0.4,0.1,0.9,0.2,1.3,0.2c0.6,0,1.1-0.1,1.5-0.3c0.3-0.2,0.5-0.5,0.5-0.9c0-0.3-0.1-0.6-0.4-0.8c-0.3-0.2-0.8-0.5-1.6-0.8
			c-0.7-0.3-1.3-0.5-1.6-0.7c-0.3-0.2-0.5-0.4-0.7-0.7c-0.2-0.3-0.2-0.6-0.2-0.9c0-0.7,0.3-1.2,0.8-1.5c0.5-0.4,1.3-0.6,2.2-0.6
			c0.9,0,1.7,0.2,2.5,0.5l-0.4,1c-0.8-0.3-1.5-0.5-2.2-0.5c-0.6,0-1,0.1-1.3,0.3s-0.4,0.4-0.4,0.7c0,0.2,0.1,0.4,0.2,0.5
			c0.1,0.2,0.3,0.3,0.5,0.4s0.7,0.3,1.4,0.6c1,0.3,1.6,0.7,1.9,1C531.9,175.5,532,176,532,176.5z"/>
	</g>
	<g>
		<path d="M308,173.2c0,1.9-0.5,3.3-1.6,4.3s-2.6,1.5-4.5,1.5h-3.2v-11.4h3.5c1.8,0,3.2,0.5,4.2,1.5C307.5,170,308,171.4,308,173.2z
			 M306,173.2c0-2.7-1.3-4.1-3.8-4.1h-1.6v8.3h1.3C304.6,177.4,306,176,306,173.2z"/>
		<path d="M314,179.2c-1.3,0-2.4-0.4-3.2-1.2s-1.1-1.9-1.1-3.2c0-1.4,0.4-2.5,1.1-3.3s1.7-1.2,2.9-1.2c1.1,0,2,0.3,2.7,1
			c0.7,0.7,1,1.6,1,2.9v1h-5.8c0,0.8,0.3,1.5,0.7,1.9c0.4,0.5,1,0.7,1.8,0.7c0.5,0,1,0,1.4-0.1c0.4-0.1,0.9-0.3,1.4-0.5v1.5
			c-0.4,0.2-0.9,0.4-1.4,0.5C315.1,179.1,314.6,179.2,314,179.2z M313.7,171.6c-0.6,0-1.1,0.2-1.4,0.6s-0.6,0.9-0.6,1.6h3.9
			c0-0.7-0.2-1.3-0.5-1.6C314.7,171.8,314.2,171.6,313.7,171.6z"/>
		<path d="M324.9,179l-0.4-1.2h-0.1c-0.4,0.5-0.8,0.9-1.3,1.1s-1,0.3-1.6,0.3c-0.8,0-1.5-0.2-2-0.7s-0.7-1.1-0.7-1.9
			c0-0.9,0.3-1.6,1-2c0.7-0.5,1.7-0.7,3-0.7l1.5,0v-0.5c0-0.6-0.1-1-0.4-1.2s-0.7-0.4-1.2-0.4c-0.4,0-0.9,0.1-1.3,0.2
			s-0.8,0.3-1.2,0.5l-0.6-1.3c0.5-0.2,1-0.4,1.5-0.6c0.6-0.1,1.1-0.2,1.6-0.2c1.1,0,1.9,0.2,2.5,0.7c0.6,0.5,0.8,1.2,0.8,2.3v5.8
			H324.9z M322.1,177.8c0.7,0,1.2-0.2,1.6-0.6c0.4-0.4,0.6-0.9,0.6-1.6v-0.8l-1.1,0c-0.9,0-1.5,0.2-1.9,0.4
			c-0.4,0.3-0.6,0.7-0.6,1.2c0,0.4,0.1,0.7,0.3,0.9C321.3,177.6,321.7,177.8,322.1,177.8z"/>
		<path d="M330.6,179h-1.8v-12.2h1.8V179z"/>
		<path d="M337,179.2c-1.3,0-2.4-0.4-3.2-1.2s-1.1-1.9-1.1-3.2c0-1.4,0.4-2.5,1.1-3.3s1.7-1.2,2.9-1.2c1.1,0,2,0.3,2.7,1
			c0.7,0.7,1,1.6,1,2.9v1h-5.8c0,0.8,0.3,1.5,0.7,1.9c0.4,0.5,1,0.7,1.8,0.7c0.5,0,1,0,1.4-0.1c0.4-0.1,0.9-0.3,1.4-0.5v1.5
			c-0.4,0.2-0.9,0.4-1.4,0.5C338.1,179.1,337.6,179.2,337,179.2z M336.6,171.6c-0.6,0-1.1,0.2-1.4,0.6s-0.6,0.9-0.6,1.6h3.9
			c0-0.7-0.2-1.3-0.5-1.6C337.7,171.8,337.2,171.6,336.6,171.6z"/>
		<path d="M346.8,170.2c0.4,0,0.7,0,0.9,0.1l-0.2,1.7c-0.3-0.1-0.5-0.1-0.8-0.1c-0.7,0-1.3,0.2-1.8,0.7c-0.5,0.5-0.7,1.1-0.7,1.9
			v4.5h-1.8v-8.6h1.4l0.2,1.5h0.1c0.3-0.5,0.7-0.9,1.1-1.2S346.3,170.2,346.8,170.2z"/>
	</g>
	<g>
		<path d="M594.3,179h-6.5v-11.4h6.5v1.6h-4.6v3.1h4.3v1.6h-4.3v3.6h4.6V179z"/>
		<path d="M600.7,179h-1.9v-9.8h-3.4v-1.6h8.6v1.6h-3.4V179z"/>
		<path d="M607.6,179h-1.9v-11.4h6.4v1.6h-4.6v3.6h4.3v1.6h-4.3V179z"/>
	</g>
</g>
<g class="st0">
	<g class="st2">
		<g>
			<g>
				<g>
					<path d="M370.3,143.6h-32.1v-21.1h32.1V143.6L370.3,143.6z M340.2,141.6h28.1v-17.1h-28.1V141.6z"/>
				</g>
			</g>
		</g>
	</g>
	<g class="st2">
		<g>
			<g>
				<path d="M344.5,132.6c1.6-1.8,4.9-3.7,9.8-3.7s8.3,1.9,9.8,3.7h2.3c-1.4-3.8-7.1-5.8-12.2-5.8s-10.6,2-12,5.8H344.5z"/>
			</g>
		</g>
	</g>
	<g class="st2">
		<g>
			<g>
				<rect x="343.4" y="134.2" width="10.2" height="1.9"/>
			</g>
		</g>
	</g>
	<g class="st2">
		<g>
			<g>
				<rect x="343.4" y="137.6" width="10.2" height="1.9"/>
			</g>
		</g>
	</g>
	<g class="st2">
		<g>
			<g>
				<circle cx="362.3" cy="136.8" r="2.6"/>
			</g>
		</g>
	</g>
	<g class="st2">
		<g>
			<g>
				<g>
					<g>
						<path d="M557.8,62.6h-32.1V41.5h32.1V62.6z M527.8,60.6h28.1V43.5h-28.1V60.6z"/>
					</g>
				</g>
			</g>
		</g>
		<g>
			<g>
				<g>
					<path d="M532.1,51.7c1.6-1.8,4.9-3.7,9.8-3.7c4.9,0,8.3,1.9,9.8,3.7h2.3c-1.4-3.8-7.1-5.8-12.2-5.8c-5.2,0-10.6,2-12,5.8H532.1
						z"/>
				</g>
			</g>
		</g>
		<g>
			<g>
				<g>
					<rect x="531" y="53.2" width="10.2" height="1.9"/>
				</g>
			</g>
		</g>
		<g>
			<g>
				<g>
					<rect x="531" y="56.6" width="10.2" height="1.9"/>
				</g>
			</g>
		</g>
		<g>
			<g>
				<g>
					<circle cx="549.9" cy="55.8" r="2.6"/>
				</g>
			</g>
		</g>
	</g>
	<g class="st2">
		<g>
			<g>
				<g>
					<g>
						<path d="M557.8,86.1h-32.1V65h32.1V86.1z M527.8,84.1h28.1V67h-28.1V84.1z"/>
					</g>
				</g>
			</g>
		</g>
		<g>
			<g>
				<g>
					<path d="M532.1,75.2c1.6-1.8,4.9-3.7,9.8-3.7c4.9,0,8.3,1.9,9.8,3.7h2.3c-1.4-3.8-7.1-5.8-12.2-5.8c-5.2,0-10.6,2-12,5.8H532.1
						z"/>
				</g>
			</g>
		</g>
		<g>
			<g>
				<g>
					<rect x="531" y="76.8" width="10.2" height="1.9"/>
				</g>
			</g>
		</g>
		<g>
			<g>
				<g>
					<rect x="531" y="80.1" width="10.2" height="1.9"/>
				</g>
			</g>
		</g>
		<g>
			<g>
				<g>
					<circle cx="549.9" cy="79.3" r="2.6"/>
				</g>
			</g>
		</g>
	</g>
	<g class="st2">
		<g>
			<g>
				<g>
					<g>
						<path d="M557.8,109.7h-32.1V88.6h32.1V109.7z M527.8,107.7h28.1V90.6h-28.1V107.7z"/>
					</g>
				</g>
			</g>
		</g>
		<g>
			<g>
				<g>
					<path d="M532.1,98.8c1.6-1.8,4.9-3.7,9.8-3.7c4.9,0,8.3,1.9,9.8,3.7h2.3c-1.4-3.8-7.1-5.8-12.2-5.8c-5.2,0-10.6,2-12,5.8H532.1
						z"/>
				</g>
			</g>
		</g>
		<g>
			<g>
				<g>
					<rect x="531" y="100.3" width="10.2" height="1.9"/>
				</g>
			</g>
		</g>
		<g>
			<g>
				<g>
					<rect x="531" y="103.7" width="10.2" height="1.9"/>
				</g>
			</g>
		</g>
		<g>
			<g>
				<g>
					<circle cx="549.9" cy="102.9" r="2.6"/>
				</g>
			</g>
		</g>
	</g>
	<g class="st2">
		<g>
			<g>
				<g>
					<g>
						<path d="M557.8,133.2h-32.1v-21.1h32.1V133.2z M527.8,131.2h28.1v-17.1h-28.1V131.2z"/>
					</g>
				</g>
			</g>
		</g>
		<g>
			<g>
				<g>
					<path d="M532.1,122.3c1.6-1.8,4.9-3.7,9.8-3.7c4.9,0,8.3,1.9,9.8,3.7h2.3c-1.4-3.8-7.1-5.8-12.2-5.8c-5.2,0-10.6,2-12,5.8
						H532.1z"/>
				</g>
			</g>
		</g>
		<g>
			<g>
				<g>
					<rect x="531" y="123.9" width="10.2" height="1.9"/>
				</g>
			</g>
		</g>
		<g>
			<g>
				<g>
					<rect x="531" y="127.2" width="10.2" height="1.9"/>
				</g>
			</g>
		</g>
		<g>
			<g>
				<g>
					<circle cx="549.9" cy="126.4" r="2.6"/>
				</g>
			</g>
		</g>
	</g>
	<g class="st2">
		<g>
			<g>
				<g>
					<g>
						<path d="M592.5,73.6h-32.1V52.5h32.1V73.6z M562.4,71.6h28.1V54.5h-28.1V71.6z"/>
					</g>
				</g>
			</g>
		</g>
		<g>
			<g>
				<g>
					<path d="M566.8,62.7c1.6-1.8,4.9-3.7,9.8-3.7c4.9,0,8.3,1.9,9.8,3.7h2.3c-1.4-3.8-7.1-5.8-12.2-5.8c-5.2,0-10.6,2-12,5.8H566.8
						z"/>
				</g>
			</g>
		</g>
		<g>
			<g>
				<g>
					<rect x="565.7" y="64.2" width="10.2" height="1.9"/>
				</g>
			</g>
		</g>
		<g>
			<g>
				<g>
					<rect x="565.7" y="67.6" width="10.2" height="1.9"/>
				</g>
			</g>
		</g>
		<g>
			<g>
				<g>
					<circle cx="584.5" cy="66.8" r="2.6"/>
				</g>
			</g>
		</g>
	</g>
	<g class="st2">
		<g>
			<g>
				<g>
					<g>
						<path d="M592.5,97.1h-32.1V76h32.1V97.1z M562.4,95.1h28.1V78h-28.1V95.1z"/>
					</g>
				</g>
			</g>
		</g>
		<g>
			<g>
				<g>
					<path d="M566.8,86.2c1.6-1.8,4.9-3.7,9.8-3.7c4.9,0,8.3,1.9,9.8,3.7h2.3c-1.4-3.8-7.1-5.8-12.2-5.8c-5.2,0-10.6,2-12,5.8H566.8
						z"/>
				</g>
			</g>
		</g>
		<g>
			<g>
				<g>
					<rect x="565.7" y="87.8" width="10.2" height="1.9"/>
				</g>
			</g>
		</g>
		<g>
			<g>
				<g>
					<rect x="565.7" y="91.1" width="10.2" height="1.9"/>
				</g>
			</g>
		</g>
		<g>
			<g>
				<g>
					<circle cx="584.5" cy="90.3" r="2.6"/>
				</g>
			</g>
		</g>
	</g>
	<g class="st2">
		<g>
			<g>
				<g>
					<g>
						<path d="M592.5,120.7h-32.1V99.6h32.1V120.7z M562.4,118.7h28.1v-17.1h-28.1V118.7z"/>
					</g>
				</g>
			</g>
		</g>
		<g>
			<g>
				<g>
					<path d="M566.8,109.8c1.6-1.8,4.9-3.7,9.8-3.7c4.9,0,8.3,1.9,9.8,3.7h2.3c-1.4-3.8-7.1-5.8-12.2-5.8c-5.2,0-10.6,2-12,5.8
						H566.8z"/>
				</g>
			</g>
		</g>
		<g>
			<g>
				<g>
					<rect x="565.7" y="111.3" width="10.2" height="1.9"/>
				</g>
			</g>
		</g>
		<g>
			<g>
				<g>
					<rect x="565.7" y="114.7" width="10.2" height="1.9"/>
				</g>
			</g>
		</g>
		<g>
			<g>
				<g>
					<circle cx="584.5" cy="113.9" r="2.6"/>
				</g>
			</g>
		</g>
	</g>
	<g class="st2">
		<g>
			<g>
				<g>
					<g>
						<path d="M592.5,144.2h-32.1v-21.1h32.1V144.2z M562.4,142.2h28.1v-17.1h-28.1V142.2z"/>
					</g>
				</g>
			</g>
		</g>
		<g>
			<g>
				<g>
					<path d="M566.8,133.3c1.6-1.8,4.9-3.7,9.8-3.7c4.9,0,8.3,1.9,9.8,3.7h2.3c-1.4-3.8-7.1-5.8-12.2-5.8c-5.2,0-10.6,2-12,5.8
						H566.8z"/>
				</g>
			</g>
		</g>
		<g>
			<g>
				<g>
					<rect x="565.7" y="134.9" width="10.2" height="1.9"/>
				</g>
			</g>
		</g>
		<g>
			<g>
				<g>
					<rect x="565.7" y="138.2" width="10.2" height="1.9"/>
				</g>
			</g>
		</g>
		<g>
			<g>
				<g>
					<circle cx="584.5" cy="137.4" r="2.6"/>
				</g>
			</g>
		</g>
	</g>
	<g class="st2">
		<g>
			<path class="st1" d="M311.6,106.4h10.6c0,9.7-7.9,17.5-17.5,17.5c-3.4,0-3.5,3.7,5.9,3.7c11.7,0,21.2-9.5,21.2-21.2l0,0h10.6
				L327,91L311.6,106.4z"/>
		</g>
	</g>
	<g class="st2">
		<g>
			<path class="st1" d="M299.4,70c-11.7,0-21.2,9.5-21.2,21.2l0,0h-10.6l15.4,15.4l15.4-15.4h-10.6c0-9.7,7.9-17.5,17.5-17.5
				C308.7,73.7,308.8,70,299.4,70z"/>
		</g>
	</g>
	<g class="st2">
		<g>
			<g>
				<path class="st1" d="M188.5,97.2c0-3.3,2.7-6,6-6h4.4c1.4,0,2.8,0.5,3.8,1.4c1.5-0.2,2.9-0.5,4.2-0.9c2.7-4.2,4.3-9.2,4.3-14.1
					c0-12.1-9.9-22-22-22s-22,9.9-22,22s9.9,25,22,25c0.8,0,1.6-0.1,2.4-0.2C189.8,101.4,188.5,99.4,188.5,97.2z"/>
			</g>
		</g>
	</g>
	<g class="st2">
		<g>
			<g>
				<path class="st1" d="M205.7,102.8c-4.3,3.3-9.6,5.2-15.4,5.2H188c-5.8,0-11.1-1.9-15.4-5.2c-13.9,2.3-24.6,14.3-24.6,28.9
					c0,8,18.4,14.5,41.1,14.5s41.1-6.5,41.1-14.5C230.3,117.1,219.7,105,205.7,102.8z"/>
			</g>
		</g>
	</g>
	<g class="st2">
		<g>
			<g>
				<path class="st1" d="M158.4,94.5h0.3c3,0,5.5-2.4,5.5-5.5V78c0-2.2-1.2-4-3.1-4.9c0.8-14.8,13.1-26.7,28.1-26.7
					s27.3,11.8,28.1,26.7c-1.8,0.9-3.1,2.8-3.1,4.9v11c0,0.7,0.1,1.4,0.4,2c-3.2,2.3-7.9,3.9-13.1,4.4c-0.6-0.9-1.6-1.5-2.8-1.5
					h-4.4c-1.8,0-3.3,1.5-3.3,3.3s1.5,3.3,3.3,3.3h4.4c1.3,0,2.4-0.7,2.9-1.8c6.1-0.5,11.4-2.3,15.1-5.1c0.9,0.6,1.9,0.9,2.9,0.9
					h0.3c3,0,5.5-2.4,5.5-5.5V78c0-2.2-1.3-4.1-3.1-4.9c-0.8-17.6-15.4-31.7-33.2-31.7S156.8,55.5,156,73.1
					c-1.9,0.9-3.1,2.8-3.1,4.9v11C152.9,92,155.4,94.5,158.4,94.5z"/>
			</g>
		</g>
	</g>
	<g class="st2">
		<g>
			<path class="st1" d="M495.8,87.3c1,0,1.9-0.8,1.9-1.9V81c0-0.7-0.5-1.7-1.1-2l-47.3-29.1c-0.6-0.4-1.6-0.4-2.3,0L399.7,79
				c-0.6,0.4-1.1,1.3-1.1,2v4.4c0,1.1,0.9,1.9,1.9,1.9h5.7v41.9h-5.7c-1,0-1.9,0.9-1.9,1.9v7.6c0,1.1,0.9,1.9,1.9,1.9h95.3
				c1,0,1.9-0.9,1.9-1.9v-7.6c0-1.1-0.9-1.9-1.9-1.9h-5.7V87.3H495.8L495.8,87.3z M429.1,125.4h-11.4V96.8c0-3.2,2.6-5.7,5.7-5.7
				s5.7,2.6,5.7,5.7L429.1,125.4L429.1,125.4z M453.9,125.4h-11.4V96.8c0-3.2,2.6-5.7,5.7-5.7s5.7,2.6,5.7,5.7L453.9,125.4
				L453.9,125.4z M478.6,125.4h-11.4V96.8c0-3.2,2.6-5.7,5.7-5.7s5.7,2.6,5.7,5.7L478.6,125.4L478.6,125.4z"/>
		</g>
	</g>
	<g class="st2">
		<g>
			<g>
				<path class="st1" d="M245.1,48.6h34.1v14.2h-34.1V48.6z M243.1,65h38V46.3h-38V65L243.1,65z"/>
			</g>
		</g>
	</g>
	<g class="st2">
		<g>
			<g>
				<path class="st1" d="M273.5,55.7c0,1-0.8,1.7-1.7,1.7s-1.7-0.8-1.7-1.7s0.8-1.7,1.7-1.7C272.8,53.9,273.5,54.7,273.5,55.7"/>
			</g>
		</g>
	</g>
	<g class="st2">
		<g>
			<g>
				<path class="st1" d="M254.3,55.7c0,1-0.8,1.7-1.7,1.7s-1.7-0.8-1.7-1.7s0.8-1.7,1.7-1.7C253.5,53.9,254.3,54.7,254.3,55.7"/>
			</g>
		</g>
	</g>
	<g class="st2">
		<g>
			<g>
				<path class="st1" d="M262.2,50.6c-2.8,0-5,2.3-5,5s2.3,5,5,5s5-2.3,5-5S264.9,50.6,262.2,50.6z M262.2,53.9
					c-0.4,0-0.7,0.3-0.7,0.6c0,0.4,0.3,0.5,0.9,0.7c1.1,0.3,1.7,0.8,1.7,1.8c0,0.8-0.6,1.4-1.5,1.6v0.7h-1v-0.7
					c-0.9-0.2-1.5-1-1.5-1.9h1.3v0.2c0,0.4,0.3,0.7,0.7,0.7c0.4,0,0.7-0.3,0.7-0.6c0-0.4-0.4-0.5-0.9-0.7c-1.1-0.3-1.7-0.8-1.7-1.8
					c0-0.8,0.6-1.4,1.5-1.6V52h1v0.7c0.9,0.2,1.5,1,1.5,1.9h-1.3v-0.2C262.8,54.1,262.5,53.9,262.2,53.9z"/>
			</g>
		</g>
	</g>
	<text transform="matrix(1 0 0 1 245.016 35.4)" class="st2 st3 st4">Cash</text>
	<text transform="matrix(1 0 0 1 525.299 23.5548)" class="st2 st3 st4">Inventory</text>
	<text transform="matrix(1 0 0 1 330.5329 163.9414)" class="st2 st3 st4">Bonds</text>
	<text transform="matrix(1 0 0 1 424.0955 164.6998)" class="st2 st5 st6">Dealer</text>
	<text transform="matrix(1 0 0 1 142.6073 166.8793)" class="st2 st5 st6">Bond trader</text>
</g>
</svg>
